<svg width="136" height="40" viewBox="0 0 136 40" fill="none"
    xmlns="http://www.w3.org/2000/svg">
    <path d="M18.604 22.712C18.604 21.9147 18.1187 21.4813 17.148 21.412H13.456C13.1787 21.412 13.04 21.3253 13.04 21.152C13.248 20.1467 13.612 19.3493 14.132 18.76C14.652 18.136 15.0853 17.7893 15.432 17.72C16.4027 17.5813 17.9973 17.512 20.216 17.512C22.4347 17.512 23.8213 17.5293 24.376 17.564C24.9307 17.564 25.2773 17.616 25.416 17.72C25.5547 17.8933 25.624 18.1013 25.624 18.344C25.624 18.552 25.5547 19.9907 25.416 22.66C25.312 25.2947 25.26 27.6693 25.26 29.784C25.26 31.864 25.3293 33.1813 25.468 33.736C25.6067 34.256 25.676 34.5853 25.676 34.724C25.676 35.2787 25.1907 35.8853 24.22 36.544C23.2493 37.168 21.776 37.7227 19.8 38.208C17.8587 38.6933 15.7093 38.936 13.352 38.936C10.1973 38.936 7.45867 37.844 5.136 35.66C3.33333 33.9267 2.08533 32.0373 1.392 29.992C0.733333 27.9467 0.404 25.0693 0.404 21.36C0.404 7.59733 5.448 0.716 15.536 0.716C17.2347 0.716 18.76 0.906666 20.112 1.288C21.464 1.63466 22.6427 2.34533 23.648 3.42C24.688 4.46 25.208 5.812 25.208 7.476C25.208 8.34267 25.0347 9.22667 24.688 10.128C24.064 11.9653 22.6773 12.884 20.528 12.884C19.3493 12.884 18.448 12.5893 17.824 12C17.2347 11.376 16.94 10.5267 16.94 9.452C16.94 9.036 17.1653 8.776 17.616 8.672C18.2747 8.29066 18.604 7.64933 18.604 6.748C18.604 5.812 18.2573 5.10133 17.564 4.616C16.8707 4.096 16.1427 3.836 15.38 3.836C13.716 3.836 12.312 4.44267 11.168 5.656C10.024 6.83467 9.192 8.39467 8.672 10.336C7.80533 13.8027 7.372 17.3387 7.372 20.944C7.372 26.8373 8.81067 30.7547 11.688 32.696C12.7627 33.4587 13.8893 33.84 15.068 33.84C17.252 33.84 18.4133 33.4413 18.552 32.644C18.656 31.5693 18.708 29.9053 18.708 27.652L18.604 22.712ZM33.5857 18.396C32.6844 18.4307 32.0257 18.4653 31.6097 18.5C31.2284 18.5 31.0377 18.396 31.0377 18.188C31.0377 17.98 31.1417 17.772 31.3497 17.564C33.5684 15.5187 37.3124 14.496 42.5817 14.496C44.3844 14.496 45.8057 14.652 46.8457 14.964L47.3657 15.12C47.7817 15.2933 47.9897 15.484 47.9897 15.692C47.9897 15.8653 47.8684 16.004 47.6257 16.108C46.6897 16.3853 45.7884 16.836 44.9217 17.46C44.055 18.0493 43.6217 18.4653 43.6217 18.708L43.9337 19.072C45.043 19.696 45.8924 20.684 46.4817 22.036C47.1057 23.388 47.4524 24.584 47.5217 25.624L47.6257 27.236C47.6257 30.668 46.6724 33.4933 44.7657 35.712C42.859 37.9307 40.259 39.04 36.9657 39.04C35.3017 39.04 33.863 38.7453 32.6497 38.156C31.4364 37.5667 30.535 36.908 29.9457 36.18C29.391 35.4173 28.9404 34.568 28.5937 33.632C28.1777 32.3493 27.9697 31.032 27.9697 29.68C27.9697 28.2933 28.195 26.9067 28.6457 25.52C29.131 24.1333 29.6684 23.1107 30.2577 22.452C30.8817 21.7933 31.575 21.256 32.3377 20.84C33.3084 20.32 34.0884 20.06 34.6777 20.06C35.267 20.06 35.5617 20.1813 35.5617 20.424L35.2497 20.944C34.487 21.8453 33.9324 23.024 33.5857 24.48C33.2737 25.936 33.1177 27.236 33.1177 28.38C33.1177 29.4893 33.2564 30.5987 33.5337 31.708C33.811 32.8173 34.123 33.6493 34.4697 34.204C34.8164 34.724 35.215 35.1227 35.6657 35.4C36.3244 35.816 37.0177 36.024 37.7457 36.024C38.4737 36.024 39.1844 35.7467 39.8777 35.192C40.571 34.6027 41.0737 33.84 41.3857 32.904C42.0097 31.1707 42.3217 29.3853 42.3217 27.548C42.3217 24.636 41.5764 22.3827 40.0857 20.788C38.6297 19.1933 36.463 18.396 33.5857 18.396ZM65.8289 30.876C65.8289 32.3667 65.5343 33.6667 64.9449 34.776C64.3903 35.8853 63.7489 36.7 63.0209 37.22C62.2929 37.74 61.4263 38.156 60.4209 38.468C59.1036 38.884 57.9076 39.092 56.8329 39.092C54.5796 39.092 52.7076 38.6587 51.2169 37.792C49.7263 36.8907 48.9809 35.4693 48.9809 33.528C48.9809 32.384 49.2929 31.448 49.9169 30.72C50.8876 29.6453 52.0489 29.108 53.4009 29.108C53.8169 29.108 54.0249 29.2987 54.0249 29.68C54.0249 29.7147 53.9383 29.992 53.7649 30.512C53.6263 30.9973 53.5569 31.6213 53.5569 32.384C53.5569 33.1467 53.8516 33.8227 54.4409 34.412C55.0649 35.0013 55.8103 35.296 56.6769 35.296C57.5436 35.296 58.2369 35.1573 58.7569 34.88C59.2769 34.568 59.6409 34.1867 59.8489 33.736C60.1609 33.112 60.3169 32.5227 60.3169 31.968C60.3169 30.9627 59.8143 30.096 58.8089 29.368C57.8036 28.64 56.6943 28.068 55.4809 27.652C54.2676 27.236 53.1583 26.5427 52.1529 25.572C51.1476 24.6013 50.6449 23.388 50.6449 21.932C50.6449 19.436 51.4249 17.564 52.9849 16.316C54.5796 15.068 56.7289 14.444 59.4329 14.444C60.6116 14.444 61.8423 14.6173 63.1249 14.964C64.4423 15.276 65.1009 15.8307 65.1009 16.628C65.1009 17.3907 64.9623 18.1013 64.6849 18.76C64.4423 19.4187 64.1303 19.748 63.7489 19.748C63.5409 19.748 63.4023 19.6787 63.3329 19.54C63.2636 19.3667 63.1423 19.176 62.9689 18.968C62.7956 18.76 62.3796 18.5 61.7209 18.188C61.0623 17.8413 60.4903 17.668 60.0049 17.668C59.5543 17.668 59.2423 17.6853 59.0689 17.72C58.9303 17.72 58.6703 17.772 58.2889 17.876C57.9076 17.9453 57.5609 18.0667 57.2489 18.24C56.4516 18.6907 56.0529 19.3493 56.0529 20.216C56.0529 20.7707 56.1743 21.1867 56.4169 21.464C56.6596 21.7067 56.8503 21.8973 56.9889 22.036C57.1276 22.1747 57.3703 22.348 57.7169 22.556C58.0636 22.7293 58.3063 22.8507 58.4449 22.92C58.5836 22.9893 58.8956 23.1453 59.3809 23.388C59.8663 23.596 60.1783 23.7347 60.3169 23.804C63.9916 25.5373 65.8289 27.8947 65.8289 30.876ZM72.9919 18.396C72.0906 18.4307 71.4319 18.4653 71.0159 18.5C70.6346 18.5 70.4439 18.396 70.4439 18.188C70.4439 17.98 70.5479 17.772 70.7559 17.564C72.9746 15.5187 76.7186 14.496 81.9879 14.496C83.7906 14.496 85.2119 14.652 86.2519 14.964L86.7719 15.12C87.1879 15.2933 87.3959 15.484 87.3959 15.692C87.3959 15.8653 87.2746 16.004 87.0319 16.108C86.0959 16.3853 85.1946 16.836 84.3279 17.46C83.4613 18.0493 83.0279 18.4653 83.0279 18.708L83.3399 19.072C84.4493 19.696 85.2986 20.684 85.8879 22.036C86.5119 23.388 86.8586 24.584 86.9279 25.624L87.0319 27.236C87.0319 30.668 86.0786 33.4933 84.1719 35.712C82.2653 37.9307 79.6653 39.04 76.3719 39.04C74.7079 39.04 73.2693 38.7453 72.0559 38.156C70.8426 37.5667 69.9413 36.908 69.3519 36.18C68.7973 35.4173 68.3466 34.568 67.9999 33.632C67.5839 32.3493 67.3759 31.032 67.3759 29.68C67.3759 28.2933 67.6013 26.9067 68.0519 25.52C68.5373 24.1333 69.0746 23.1107 69.6639 22.452C70.2879 21.7933 70.9813 21.256 71.7439 20.84C72.7146 20.32 73.4946 20.06 74.0839 20.06C74.6733 20.06 74.9679 20.1813 74.9679 20.424L74.6559 20.944C73.8933 21.8453 73.3386 23.024 72.9919 24.48C72.6799 25.936 72.5239 27.236 72.5239 28.38C72.5239 29.4893 72.6626 30.5987 72.9399 31.708C73.2173 32.8173 73.5293 33.6493 73.8759 34.204C74.2226 34.724 74.6213 35.1227 75.0719 35.4C75.7306 35.816 76.4239 36.024 77.1519 36.024C77.8799 36.024 78.5906 35.7467 79.2839 35.192C79.9773 34.6027 80.4799 33.84 80.7919 32.904C81.4159 31.1707 81.7279 29.3853 81.7279 27.548C81.7279 24.636 80.9826 22.3827 79.4919 20.788C78.0359 19.1933 75.8693 18.396 72.9919 18.396ZM95.7363 8.256L95.4243 27.34C95.4243 33.3027 95.6149 36.8733 95.9963 38.052C96.1003 38.26 96.1523 38.468 96.1523 38.676C96.1523 39.092 95.6496 39.3 94.6443 39.3C93.6389 39.3 92.5123 39.04 91.2643 38.52C90.0509 38.0347 89.4443 37.3933 89.4443 36.596C90.1376 31.7427 90.4843 25.26 90.4843 17.148L90.2763 9.192C90.2069 8.22133 89.9989 7.38933 89.6523 6.696C89.3403 6.00266 89.0283 5.552 88.7163 5.344L88.3003 5.084C88.0576 4.94533 87.9363 4.78933 87.9363 4.616C87.9363 4.13067 88.6816 3.54133 90.1723 2.848C91.6976 2.12 93.1709 1.756 94.5923 1.756C95.1469 1.756 95.4589 1.94666 95.5283 2.328C95.6669 3.22933 95.7363 5.20533 95.7363 8.256ZM116.647 22.4L116.543 29.056C116.543 33.6667 117.045 36.44 118.051 37.376C118.189 37.5147 118.259 37.6707 118.259 37.844C118.259 38.364 117.132 38.624 114.879 38.624C112.66 38.624 111.481 37.9653 111.343 36.648C111.308 36.336 111.291 35.6947 111.291 34.724L111.499 26.404C111.499 26.1613 111.36 26.04 111.083 26.04C109.419 26.04 107.859 26.508 106.403 27.444C104.947 28.38 104.219 29.576 104.219 31.032C104.219 31.7947 104.427 32.436 104.843 32.956C105.259 33.476 105.761 33.736 106.351 33.736C106.975 33.736 107.477 33.6147 107.859 33.372C108.275 33.1293 108.517 32.9907 108.587 32.956C109.176 33.0253 109.471 33.6493 109.471 34.828C109.471 35.972 108.933 36.908 107.859 37.636C106.784 38.3293 105.657 38.676 104.479 38.676C103.3 38.676 102.277 38.468 101.411 38.052C100.579 37.636 99.9721 37.168 99.5908 36.648C99.2094 36.128 98.8974 35.5387 98.6548 34.88C98.4121 34.0827 98.2908 33.3893 98.2908 32.8C98.2908 30.3733 99.0534 28.432 100.579 26.976C102.104 25.52 104.063 24.48 106.455 23.856C109.609 23.232 111.256 22.66 111.395 22.14C111.499 21.7587 111.551 21.1173 111.551 20.216C111.551 18.3787 110.615 17.46 108.743 17.46C107.945 17.46 107.235 17.72 106.611 18.24C105.987 18.7253 105.675 19.3493 105.675 20.112L105.987 21.36C105.917 21.9493 105.293 22.296 104.115 22.4L103.543 22.452C102.503 22.452 101.671 22.192 101.047 21.672C100.457 21.152 100.163 20.4587 100.163 19.592C100.163 19.0373 100.336 18.4307 100.683 17.772C101.064 17.0787 101.532 16.524 102.087 16.108C102.641 15.692 103.491 15.328 104.635 15.016C105.813 14.6693 106.94 14.496 108.015 14.496C109.089 14.496 109.921 14.5307 110.511 14.6C111.1 14.6693 111.897 14.8427 112.903 15.12C113.943 15.3627 114.792 15.848 115.451 16.576C116.144 17.304 116.508 18.084 116.543 18.916C116.612 19.7133 116.647 20.8747 116.647 22.4ZM135.654 24.064L135.862 25.884C135.862 26.5427 135.238 26.872 133.99 26.872C131.46 26.872 130.194 25.9187 130.194 24.012C130.194 23.5613 130.316 22.9373 130.558 22.14C130.801 21.3427 130.922 20.6493 130.922 20.06C130.922 19.4707 130.749 18.968 130.402 18.552C130.056 18.1013 129.553 17.876 128.894 17.876C128.236 17.876 127.664 18.1187 127.178 18.604C126.728 19.0547 126.45 19.5227 126.346 20.008L126.138 20.736C125.93 21.8107 125.826 23.6133 125.826 26.144C125.826 28.64 125.861 30.616 125.93 32.072C126 33.4933 126.069 34.4813 126.138 35.036C126.208 35.556 126.242 35.868 126.242 35.972C126.242 36.8387 125.705 37.532 124.63 38.052C123.556 38.6067 122.481 38.884 121.406 38.884C120.332 38.884 119.794 38.6587 119.794 38.208L120.054 36.596C120.54 33.58 120.782 29.6453 120.782 24.792C120.782 19.9387 120.609 16.6453 120.262 14.912C120.262 14.496 120.626 14.288 121.354 14.288C123.226 14.288 124.474 14.9293 125.098 16.212C125.133 16.3507 125.185 16.42 125.254 16.42C125.358 16.42 125.601 16.264 125.982 15.952C127.126 15.016 128.478 14.548 130.038 14.548C131.009 14.548 131.98 14.7387 132.95 15.12C134.926 15.9173 135.914 17.5813 135.914 20.112L135.654 24.064Z" fill="rgba(3, 101, 26, 0.691)"/>
</svg>
