<svg width="55" height="55" viewBox="0 0 55 55" fill="none" xmlns="http://www.w3.org/2000/svg">
<circle cx="27.5" cy="27.5" r="27.5" fill="#03651A" fill-opacity="0.2"/>
<path d="M38.2054 34.266H19.0089V18.2059C19.0089 18.0927 18.9085 18 18.7857 18H17.2232C17.1004 18 17 18.0927 17 18.2059V35.9132C17 36.0265 17.1004 36.1191 17.2232 36.1191H38.2054C38.3281 36.1191 38.4286 36.0265 38.4286 35.9132V34.4719C38.4286 34.3587 38.3281 34.266 38.2054 34.266ZM21.9609 30.2948C22.0474 30.3745 22.1869 30.3745 22.2762 30.2948L26.1351 26.7533L29.6953 30.058C29.7818 30.1378 29.9241 30.1378 30.0106 30.058L37.6948 22.9725C37.7813 22.8927 37.7813 22.7614 37.6948 22.6816L36.5899 21.6624C36.5479 21.6241 36.4913 21.6026 36.4322 21.6026C36.3732 21.6026 36.3165 21.6241 36.2746 21.6624L29.8572 27.5795L26.3025 24.2799C26.2605 24.2416 26.2039 24.2201 26.1448 24.2201C26.0858 24.2201 26.0291 24.2416 25.9872 24.2799L20.8588 28.9822C20.8173 29.0209 20.794 29.0731 20.794 29.1276C20.794 29.182 20.8173 29.2343 20.8588 29.273L21.9609 30.2948Z" fill="#03651A"/>
</svg>
