<svg width="55" height="55" viewBox="0 0 55 55" fill="none" xmlns="http://www.w3.org/2000/svg">
<circle cx="27.5" cy="27.5" r="27" fill="#DD2A7B" fill-opacity="0.13" stroke="white"/>
<path d="M15.9809 29.1432L16.3855 28.9581L16.0169 28.7088C14.4491 27.6483 13.4325 25.9442 13.4325 24.0398C13.4325 20.8746 16.2477 18.25 19.7302 18.25C23.2125 18.25 26.0275 20.8743 26.0278 24.0393C26.0261 24.9473 25.7924 25.8432 25.3442 26.6542C24.896 27.4654 24.2455 28.1696 23.444 28.7084L23.072 28.9584L23.4802 29.1435C25.0312 29.8469 26.3116 30.9654 27.1556 32.3488L27.369 32.6986L27.5825 32.3488C28.4265 30.9654 29.7069 29.8469 31.2579 29.1435L31.6647 28.959L31.2947 28.7088C29.7269 27.6483 28.7103 25.9442 28.7103 24.0398C28.7103 20.8746 31.5254 18.25 35.0079 18.25C38.4903 18.25 41.3053 20.8743 41.3056 24.0393C41.3039 24.9473 41.0701 25.8432 40.622 26.6542C40.1737 27.4654 39.5233 28.1696 38.7218 28.7084L38.3512 28.9574L38.7572 29.1432C41.4819 30.3898 43.3815 32.9283 43.4838 35.8693H41.8004C41.6592 32.4849 38.6644 29.8295 35.0079 29.8295C31.3514 29.8295 28.3566 32.4849 28.2155 35.8693H26.5226C26.3815 32.4849 23.3867 29.8295 19.7302 29.8295C16.0737 29.8295 13.0789 32.4849 12.9377 35.8693H11.2543C11.3566 32.9292 13.2563 30.3898 15.9809 29.1432ZM24.3452 24.0398C24.3452 21.6453 22.2747 19.7633 19.7302 19.7633C17.1856 19.7633 15.1151 21.6453 15.1151 24.0398C15.1151 26.4342 17.1856 28.3163 19.7302 28.3163C22.2747 28.3163 24.3452 26.4342 24.3452 24.0398ZM39.623 24.0398C39.623 21.6453 37.5525 19.7633 35.0079 19.7633C32.4634 19.7633 30.3929 21.6453 30.3929 24.0398C30.3929 26.4342 32.4634 28.3163 35.0079 28.3163C37.5525 28.3163 39.623 26.4342 39.623 24.0398Z" fill="#DD2A7B" stroke="white" stroke-width="0.5"/>
</svg>
