<svg width="55" height="55" viewBox="0 0 55 55" fill="none" xmlns="http://www.w3.org/2000/svg">
<circle cx="27.5" cy="27.5" r="27" fill="#FF5C00" fill-opacity="0.2" stroke="white"/>
<path d="M31.5802 31.2169L31.8805 31.4939L36.1572 35.4388L36.9044 34.7495L32.6871 30.8595L32.3346 30.5343L32.6448 30.1685C33.7196 28.9013 34.2991 27.3451 34.2995 25.7481L31.5802 31.2169ZM31.5802 31.2169L31.249 31.4559M31.5802 31.2169L31.249 31.4559M31.249 31.4559C29.8687 32.4516 28.1618 32.9959 26.3998 32.9963L31.249 31.4559ZM26.3997 32.9963C22.0057 32.9962 18.5 29.7068 18.5 25.7481C18.5 21.7894 22.0057 18.5 26.3998 18.5C30.7938 18.5 34.2995 21.7893 34.2995 25.748L26.3997 32.9963ZM33.1996 25.7481C33.1996 22.2299 30.1115 19.437 26.3998 19.437C22.6881 19.437 19.5999 22.2299 19.5999 25.7481C19.5999 29.2664 22.6881 32.0592 26.3998 32.0592C30.1115 32.0592 33.1996 29.2664 33.1996 25.7481Z" fill="#FF5C00" stroke="white"/>
<path d="M28.2219 24.0112L28.2209 24.0103C27.3509 23.2099 25.9469 23.1149 24.9492 23.7305L24.2029 23.0403C25.6329 22.1007 27.7647 22.2126 29.0283 23.3766L29.0293 23.3775C29.3722 23.6918 29.6418 24.0634 29.8247 24.4697C29.9375 24.7204 30.0161 24.9816 30.0596 25.2477H28.9448C28.84 24.7784 28.589 24.3507 28.2219 24.0112Z" fill="#FF5C00" stroke="white"/>
</svg>
