<svg width="55" height="55" viewBox="0 0 55 55" fill="none" xmlns="http://www.w3.org/2000/svg">
<circle cx="27.5" cy="27.5" r="27" fill="#00FF19" fill-opacity="0.2" stroke="white"/>
<path d="M21.0927 33.3193C21.0927 33.3211 21.0911 33.3517 21.0275 33.3917C20.9665 33.4301 20.8701 33.4602 20.7534 33.4602C20.6367 33.4602 20.5403 33.4301 20.4793 33.3917C20.4157 33.3517 20.4141 33.3211 20.4141 33.3193C20.4141 33.3176 20.4157 33.287 20.4793 33.247C20.5403 33.2086 20.6367 33.1785 20.7534 33.1785C20.8701 33.1785 20.9665 33.2086 21.0275 33.247C21.0911 33.287 21.0927 33.3176 21.0927 33.3193Z" fill="#00FF19" stroke="white" stroke-width="0.390625"/>
<path d="M36.4152 31.6464L36.2145 31.5377C36.1991 31.5295 34.6654 30.69 34.2842 29.6714L34.1992 29.4458L34.0421 29.6352C34.0372 29.6411 33.8193 29.8897 33.2094 30.1813C32.7579 27.8108 31.2221 24.9808 29.2038 23.7741C29.7808 23.8172 30.3597 23.773 30.9182 23.5856C31.2546 23.4729 31.1095 22.9673 30.77 23.0816C30.3121 23.2354 29.8532 23.2773 29.3953 23.2558C30.5196 22.3054 31.4023 20.8487 31.4023 19.7837C31.4023 19.5277 31.4023 19.0512 30.991 19.0512C30.8259 19.0512 30.6924 19.1464 30.5079 19.2777C30.2249 19.479 29.7977 19.7837 29.17 19.7837C28.9309 19.7837 28.4933 19.5509 28.1415 19.3641C27.7165 19.1384 27.4448 19 27.2165 19C26.8384 19 26.2825 19.282 25.7921 19.5308C25.5926 19.6319 25.3197 19.7706 25.2633 19.7839C24.5524 19.7839 24.1396 19.4816 23.8658 19.2814C23.7062 19.1642 23.5905 19.0793 23.4362 19.0793C23.0316 19.0793 23.0316 19.5269 23.0316 20.0453C23.0316 21.0458 23.8579 22.3665 24.9398 23.2541C24.2581 23.2991 23.5859 23.489 23.1136 23.9112C22.8527 24.1439 23.248 24.5131 23.508 24.2809C23.9005 23.9299 24.4152 23.7795 24.9658 23.7504C24.9815 23.8022 25.0005 23.8531 25.0239 23.9032C22.717 25.4323 21.0784 29.0633 21.0784 31.5145C21.0784 31.7562 21.0987 31.9751 21.13 32.1812C20.5352 31.9374 20.3182 31.7237 20.3139 31.7189L20.1555 31.5504L20.0775 31.7628C19.7329 32.6982 18.2345 33.5096 18.2194 33.5178L18 33.6353L18.2231 33.7465C18.3014 33.7856 18.379 33.8199 18.4573 33.857L18.3161 33.9473L18.3907 34.8079L24.2384 35.9868L26.4556 34.6785C26.6794 34.6797 26.9059 34.6802 27.1364 34.6802L29.728 35.9868L35.5868 34.2881V33.3796L35.4318 33.2938C35.5091 33.2485 35.5865 33.2024 35.6635 33.1548L35.8689 33.0283L35.8237 33.0079L36.0849 32.9419L36.1291 31.9975L35.9781 31.8987C36.0585 31.8542 36.1386 31.8089 36.2191 31.7619L36.4152 31.6464ZM23.5899 20.0453C23.5899 19.9196 23.5918 19.8216 23.5945 19.7454C23.6415 19.7794 23.6961 19.8165 23.7544 19.8547C23.9334 20.2499 24.2719 20.819 24.8458 21.1774C25.5432 21.6134 25.4505 21.1123 25.8225 20.6548C26.1944 20.1976 26.4461 19.9581 27.0692 21.1341C27.3408 21.6468 27.7935 20.214 28.2238 20.0048C28.3377 20.062 28.4512 20.1152 28.5626 20.1605C29.3342 21.3179 29.6918 20.9569 30.3771 19.9949C30.5656 19.8929 30.7203 19.7837 30.8434 19.6962C30.844 19.7225 30.8446 19.7517 30.8446 19.7842C30.8446 20.693 30.0395 21.9965 29.0537 22.8467C29.0072 22.7376 28.9405 22.6367 28.8567 22.5485C28.4586 22.1327 27.8365 22.5938 27.5415 22.8965C27.0182 22.7413 26.1656 22.3141 25.6101 22.5587C25.4717 22.6179 25.3446 22.6974 25.2338 22.794C24.3253 22.0302 23.5899 20.9274 23.5899 20.0453ZM28.5633 23.1521C28.4256 23.1252 28.2888 23.095 28.1529 23.0615C28.3242 22.9254 28.4813 22.8778 28.5473 23.0802C28.5544 23.1023 28.5586 23.1275 28.5633 23.1521ZM26.2307 23.328C26.1291 23.3101 26.0247 23.294 25.9173 23.2812C25.8358 23.2341 25.7561 23.1846 25.6782 23.1326C25.9587 22.9591 26.4424 23.0514 26.9047 23.196C26.6766 23.2173 26.4516 23.2631 26.2307 23.328ZM26.37 24.0754C26.1981 24.115 26.0109 24.0992 25.8492 24.0397C25.9148 24.0077 25.9811 23.98 26.0474 23.9519C26.1549 23.9998 26.2623 24.0397 26.37 24.0754ZM20.6929 34.3954C19.9609 34.1999 19.2506 33.9408 18.5715 33.6217C18.988 33.3691 19.8952 32.7585 20.2641 32.0246C20.517 32.2078 21.1008 32.5419 22.2376 32.7984C22.2183 32.8273 22.1947 32.8581 22.172 32.8884C21.2015 32.654 20.6496 32.3576 20.6407 32.3525L20.5069 32.2789L20.4428 32.4111C20.3584 32.5844 20.1604 32.6104 20.0502 32.6104C20.0195 32.6104 19.999 32.6084 19.9962 32.6081L19.8866 32.5934L19.8467 32.6902C19.7651 32.8879 19.4299 33.1461 19.3072 33.229L19.1021 33.3677L19.3366 33.4563C19.4238 33.4892 19.4474 33.5195 19.4487 33.5274C19.4517 33.5469 19.4146 33.5985 19.375 33.6282L19.1964 33.761L19.4042 33.8496C19.8299 34.0308 20.312 34.1808 20.7942 34.3046C20.7558 34.3394 20.7227 34.3691 20.6929 34.3954ZM23.1679 33.3406C23.597 33.396 24.0724 33.4311 24.5917 33.4311H24.592C24.7001 33.4311 24.8096 33.4295 24.9213 33.4263C24.9288 33.4477 24.9394 33.468 24.953 33.4866C24.9803 33.5249 25.0171 33.5566 25.0638 33.5812L24.2805 34.1987C24.2656 34.1981 24.2506 34.1978 24.2357 34.1978C23.8867 34.1978 23.6265 34.3162 23.5015 34.5268C23.0283 34.4711 22.5572 34.4006 22.0891 34.3153C22.4654 34.0065 22.8254 33.6812 23.1679 33.3406ZM19.6847 33.6794C19.7154 33.6259 19.7353 33.5611 19.7246 33.4903C19.7144 33.4265 19.6812 33.3676 19.6304 33.3233C19.7682 33.2143 19.9581 33.0461 20.0625 32.872C20.2997 32.8689 20.4956 32.7859 20.6189 32.6393C20.8267 32.7395 21.2948 32.9419 21.9863 33.1175C21.7036 33.4445 21.3227 33.8153 21.0265 34.0911C20.5649 33.9784 20.0999 33.8425 19.6847 33.6794ZM24.0586 34.8711L23.9957 34.8713C23.7314 34.8713 22.8558 34.8515 21.699 34.6293C21.7395 34.5976 21.7816 34.565 21.8205 34.5339C22.7591 34.7148 23.516 34.7924 23.5727 34.7983L23.6851 34.8093L23.7198 34.7088C23.7956 34.492 24.0752 34.46 24.2354 34.46C24.2793 34.46 24.3084 34.4625 24.3118 34.4628L24.3713 34.4688L25.7319 33.3963L25.3682 33.3853C25.2467 33.3813 25.1954 33.3561 25.1828 33.3389L25.2599 33.1528L25.0469 33.1611C24.8916 33.1673 24.74 33.1704 24.5917 33.1704H24.5914C24.1629 33.1704 23.7655 33.1444 23.3981 33.1033L23.4834 33.0104C24.2249 33.1019 25.1129 33.1582 26.1849 33.1512C25.929 33.4824 25.2906 34.1865 24.0586 34.8711ZM27.1352 33.6409V34.1576C26.9605 34.1576 26.7905 34.1571 26.6241 34.1559L26.5741 33.5744L26.1585 33.6055C26.4384 33.3004 26.5578 33.0968 26.5686 33.0784L26.6812 32.8819L26.4434 32.8859C24.1666 32.9244 22.6818 32.6741 21.7444 32.3961C21.676 32.1407 21.6364 31.8519 21.6364 31.5148C21.6364 29.215 23.2296 25.739 25.3449 24.3302C25.7196 24.6645 26.2881 24.8109 26.8282 24.4856C26.9467 24.4143 27.0498 24.3208 27.1465 24.2215C27.1695 24.222 27.1932 24.2268 27.2165 24.2268C27.2938 24.2268 27.3724 24.2209 27.4507 24.2118C27.5498 24.2484 27.6468 24.2852 27.7367 24.3217C28.1673 24.4967 28.535 24.3879 28.7861 24.1467C30.7237 25.2282 32.2761 28.0891 32.6846 30.4016C31.7988 30.7283 30.3937 31.047 28.2373 31.1031C28.6627 30.8789 28.9819 30.5018 28.8671 30.0063C28.7465 29.4826 28.272 29.3353 27.7806 29.3113C27.7794 29.0653 27.7794 28.8198 27.7812 28.5738C27.9319 28.6352 28.0765 28.706 28.2078 28.7816C28.4399 28.9161 28.6498 28.5675 28.4193 28.4331C28.2194 28.3172 28.0061 28.2223 27.7834 28.1502C27.7864 27.8654 27.788 27.5812 27.788 27.2969C27.7883 27.0365 27.3687 27.0365 27.3687 27.2969C27.3687 27.5469 27.3669 27.7966 27.3644 28.046C27.1411 28.0101 26.9131 28.0066 26.6886 28.0356C26.6521 27.8482 26.6079 27.6621 26.556 27.4778C26.4866 27.227 26.0815 27.3332 26.1518 27.5849C26.2033 27.7658 26.2454 27.9458 26.2801 28.1284C26.2623 28.1347 26.2429 28.1378 26.2254 28.1451C25.657 28.3527 25.3102 28.8818 25.7261 29.3753C25.9198 29.6052 26.173 29.698 26.4501 29.7289C26.4651 30.0695 26.4747 30.4103 26.4854 30.7506C26.2997 30.6394 26.1306 30.4967 25.9775 30.3458C25.7878 30.1612 25.4916 30.4463 25.681 30.6306C25.9385 30.8834 26.2089 31.0745 26.502 31.1968C26.5152 31.4876 26.5339 31.7792 26.5646 32.0685C26.5916 32.3253 27.0115 32.3267 26.9842 32.0685C26.9583 31.8183 26.9391 31.5674 26.9268 31.3163C27.0864 31.3418 27.2539 31.3483 27.4319 31.3327C27.4519 31.6005 27.4752 31.8684 27.5084 32.1362C27.5274 32.2896 27.6864 32.3499 27.8036 32.3188L27.7775 32.8748C27.5928 32.8901 27.4043 32.9043 27.2079 32.9162L26.974 32.9303L27.0986 33.116C27.1112 33.1347 27.2527 33.3411 27.5685 33.6415H27.1352V33.6409ZM34.7738 31.7775C34.388 31.9448 33.9 32.0983 33.4028 32.2322C33.0971 31.9408 32.7061 31.5521 32.4142 31.2073C33.0645 31.0255 33.4285 30.8381 33.5927 30.737C33.7226 30.8426 33.8944 30.8976 34.0979 30.8973C34.1655 30.8973 34.2253 30.8913 34.2713 30.8845C34.4187 31.0606 34.6562 31.2639 34.8048 31.3854C34.7345 31.4519 34.7004 31.5255 34.7032 31.6051C34.7056 31.673 34.7351 31.7308 34.7738 31.7775ZM32.5778 32.7078C32.6404 32.7588 32.7051 32.8108 32.7711 32.8635C31.5269 33.1679 30.6009 33.201 30.3992 33.2041C29.1108 32.479 28.4429 31.7118 28.1854 31.3664C29.2636 31.3415 30.1549 31.2515 30.8983 31.1275C30.9285 31.1617 30.9591 31.1957 30.9901 31.2294C30.3926 31.3152 29.7904 31.3703 29.1863 31.3944L28.9386 31.4041L29.0749 31.5963C29.0746 31.5966 29.047 31.6441 28.864 31.677L28.5666 31.7305L30.0288 32.8225L30.0969 32.8055C30.0985 32.8052 30.2274 32.7732 30.3833 32.7732C30.6083 32.7732 30.762 32.8363 30.8394 32.9598L30.8885 33.0379L30.9839 33.0223C31.5185 32.9324 32.0501 32.8275 32.5778 32.7078ZM28.2511 31.8757L27.9018 31.8582C27.8856 31.6974 27.8693 31.5366 27.857 31.3757C27.9184 31.4697 28.0443 31.6464 28.2511 31.8757ZM27.819 30.8392C27.7988 30.4581 27.7867 30.0767 27.7824 29.6952C27.8328 29.6969 27.8825 29.7011 27.9298 29.7074C28.4724 29.7832 28.6142 30.3398 28.1907 30.653C28.0802 30.7336 27.9528 30.7928 27.819 30.8392ZM31.0229 32.7508C30.8854 32.5943 30.6666 32.5122 30.3836 32.5122C30.2654 32.5122 30.1614 32.5269 30.0957 32.5388L29.1765 31.8517C29.2529 31.8112 29.3045 31.7599 29.3327 31.6971C29.3397 31.6814 29.345 31.6652 29.3487 31.6487C30.0773 31.6119 30.6911 31.5448 31.2101 31.4627C31.4618 31.7217 31.8316 32.079 32.3221 32.4943C31.7196 32.6265 31.2172 32.7171 31.0229 32.7508ZM27.3626 29.7054C27.3684 30.1156 27.3795 30.527 27.4031 30.9369C27.3635 30.9426 27.3245 30.9497 27.2855 30.9533C27.1536 30.9672 27.0283 30.957 26.9093 30.9293C26.8942 30.5329 26.8844 30.1357 26.8681 29.7391C27.0333 29.732 27.2005 29.717 27.3626 29.7054ZM26.847 29.3472C26.8278 29.0361 26.796 28.7258 26.7518 28.4169C26.9552 28.3911 27.1621 28.4008 27.3617 28.4455C27.3595 28.735 27.359 29.0244 27.3601 29.3138C27.2254 29.3206 27.0974 29.3325 26.9848 29.3419C26.9389 29.3452 26.8929 29.347 26.847 29.3472ZM26.4259 29.2977C26.3998 29.2912 26.374 29.2861 26.3473 29.2779C26.2245 29.2395 26.1133 29.1748 26.0229 29.089C25.7608 28.8634 26.1205 28.642 26.3473 28.537C26.3829 28.7889 26.4074 29.0432 26.4259 29.2977ZM29.8133 34.8088C28.481 34.1808 27.7662 33.483 27.4823 33.1596C27.6864 33.1455 27.8794 33.1285 28.0706 33.1107L30.2553 34.4186L35.0463 33.2047C32.5756 34.5783 30.1347 34.7875 29.8133 34.8088ZM33.7701 32.575C33.7309 32.5388 33.6839 32.4957 33.6283 32.4439C34.1734 32.2916 34.7007 32.115 35.0939 31.9207L35.333 31.8021L35.0905 31.6883C35.0362 31.6625 34.9831 31.6153 34.9822 31.5974C34.9828 31.5906 35.0043 31.5544 35.0973 31.5051L35.2747 31.4111L35.1169 31.29C35.112 31.2863 34.62 30.9095 34.4472 30.6668L34.3901 30.5876L34.2922 30.6139C34.2913 30.6139 34.2072 30.6363 34.0979 30.6363C33.9291 30.6365 33.8027 30.5856 33.7216 30.4854L33.632 30.3758L33.5197 30.465C33.5139 30.4695 33.1661 30.7325 32.2334 30.9811C32.2027 30.9403 32.1731 30.8987 32.1447 30.8565C33.2757 30.5403 33.8536 30.1575 34.1041 29.948C34.5061 30.7503 35.4634 31.3967 35.879 31.6501C35.2114 32.0227 34.5049 32.3326 33.7701 32.575Z" fill="#00FF19"/>
<path d="M31.0067 31.7732L30.9589 31.9625C31.0712 31.9909 31.1391 32.0303 31.1722 32.0591C31.1422 32.0776 31.0865 32.1009 30.9982 32.1143C30.8841 32.1316 30.7474 32.1268 30.6195 32.0948C30.5073 32.0664 30.4394 32.0268 30.4063 31.9978C30.4363 31.9794 30.492 31.9561 30.5803 31.9429C30.6945 31.9257 30.8313 31.9306 30.9592 31.9626L31.0067 31.7732ZM31.0067 31.7732C31.313 31.8504 31.464 32.0271 31.344 32.1678L30.2345 31.889C30.3554 31.7488 30.7007 31.6964 31.0067 31.7732Z" fill="#00FF19" stroke="white" stroke-width="0.390625"/>
</svg>
